<svg width="40" height="40" viewBox="0 0 40 40" fill="none" xmlns="http://www.w3.org/2000/svg">
<path d="M0 20V40H20H40V20V0H20H0V20Z" fill="#2D79C7"/>
<path d="M8.8455 20.1327L8.8328 21.7708H11.436H14.0392V29.1676L14.0392 36.5645H15.8804H17.7217V29.1676V21.7708H20.3249H22.928V20.1645C22.928 19.2756 22.909 18.5327 22.8836 18.5137C22.8645 18.4883 19.6963 18.4756 15.855 18.4819L8.86455 18.501L8.8455 20.1327Z" fill="white"/>
<path d="M32.276 18.4544C33.2919 18.7084 34.0665 19.1592 34.7776 19.8957C35.1458 20.2893 35.6919 21.0068 35.7363 21.1782C35.749 21.229 34.0093 22.3973 32.9553 23.0512C32.9172 23.0766 32.7649 22.9116 32.5934 22.6576C32.0792 21.9084 31.5395 21.5846 30.7141 21.5274C29.5014 21.4449 28.7204 22.0798 28.7268 23.1401C28.7268 23.4512 28.7712 23.6354 28.8982 23.8893C29.1649 24.4417 29.6601 24.7719 31.2157 25.4449C34.0792 26.6766 35.3046 27.4893 36.0665 28.6449C36.9172 29.9338 37.1077 31.9909 36.5299 33.5211C35.895 35.1846 34.3204 36.3147 32.1045 36.6893C31.4188 36.81 29.7934 36.7909 29.0569 36.6576C27.4506 36.3719 25.9268 35.5782 24.9871 34.537C24.6188 34.1306 23.9014 33.0703 23.9458 32.9941C23.9649 32.9687 24.1299 32.8671 24.3141 32.7592C24.4919 32.6576 25.1649 32.2703 25.7998 31.902L26.949 31.2354L27.1903 31.5909C27.5268 32.1052 28.2633 32.81 28.7077 33.0449C29.9839 33.7179 31.7363 33.6227 32.5998 32.8481C32.968 32.5116 33.1204 32.1624 33.1204 31.6481C33.1204 31.1846 33.0633 30.9814 32.822 30.6322C32.5109 30.1878 31.876 29.8131 30.0728 29.0322C28.0093 28.1433 27.1204 27.5909 26.3077 26.7147C25.8379 26.2068 25.3934 25.3941 25.2093 24.7147C25.0569 24.1497 25.0188 22.7338 25.1395 22.1624C25.5649 20.1687 27.0696 18.7782 29.2411 18.3655C29.9458 18.2322 31.5839 18.283 32.276 18.4544Z" fill="white"/>
</svg>
